<svg preserveAspectRatio="none" width="335" height="228" viewBox="0 0 335 228" fill="none" xmlns="http://www.w3.org/2000/svg">
<mask id="mask0_918_27043" style="mask-type:alpha" maskUnits="userSpaceOnUse" x="0" y="0" width="335" height="228">
<rect width="335" height="228" fill="#D9D9D9"/>
</mask>
<g mask="url(#mask0_918_27043)">
<rect width="335" height="478" fill="url(#paint0_linear_918_27043)"/>
<mask id="mask1_918_27043" style="mask-type:alpha" maskUnits="userSpaceOnUse" x="0" y="0" width="335" height="478">
<rect width="335" height="478" rx="20" fill="#D9D9D9"/>
</mask>
<g mask="url(#mask1_918_27043)">
<path opacity="0.1" d="M40.2121 287.436C-72.959 301.675 -83.1433 220.488 -74.6863 178.418C-64.727 128.875 -23.5133 111.53 2.47959 108.718C66.3053 106.867 76.8046 92.3825 85.4251 78.0078C130.69 5.21245 215.042 25.4384 251.56 44.6508C337.478 89.8531 391.216 66.6106 438.166 42.1964C523.389 -5.66877 561.985 41.3219 570.63 70.8004C604.567 186.522 504.872 212.983 464.707 192.911C423.72 172.428 394.272 174.31 382.714 183.752C337.18 220.949 271.925 195.259 244.989 177.764C208.358 157.333 153.242 205.741 130.262 232.499C99.5515 269.952 57.4327 284.729 40.2121 287.436Z" fill="url(#paint1_linear_918_27043)"/>
<path opacity="0.3" d="M8.66255 117.577C-94.8695 165.447 -60.502 239.703 -31.0443 270.906C3.64644 307.653 47.7906 300.533 71.3268 289.149C126.443 256.91 143.021 263.634 157.947 271.26C234.9 309.027 295.732 247.189 316.529 211.55C365.459 127.699 423.35 118.947 476.104 114.785C573.743 110.24 581.588 49.9393 573.306 20.3569C540.792 -95.773 442.216 -65.4075 418.782 -27.1069C394.867 11.9777 368.893 25.9798 354.088 24.0938C295.763 16.6636 254.024 73.02 240.445 102.127C220.197 138.86 147.806 126.997 114.142 116.473C68.2545 100.974 24.7026 110.751 8.66255 117.577Z" fill="url(#paint2_linear_918_27043)"/>
<path opacity="0.8" d="M7.14507 188.148C-53.2224 177.48 -49.4658 223.567 -43.0619 251.857L22.7266 297.634C96.3816 268.381 117.499 234.923 112.571 208.323C105.184 178.908 84.0908 175.265 62.0324 182.867C43.424 189.28 22.487 190.217 7.14507 188.148Z" fill="url(#paint3_linear_918_27043)"/>
<path opacity="0.6" d="M363.219 187.88C430.984 194.203 413.415 242.439 398.244 270.843L314.355 300.514C244.1 247.546 231.326 205.519 244.421 178.49C260.977 149.169 284.629 151.469 306.01 166.092C324.047 178.427 346.186 185.585 363.219 187.88Z" fill="url(#paint4_linear_918_27043)"/>
</g>
</g>
<defs>
<linearGradient id="paint0_linear_918_27043" x1="412" y1="-62.1189" x2="70.2907" y2="-179.268" gradientUnits="userSpaceOnUse">
<stop stop-color="#4ADEFF"/>
<stop offset="0.488501" stop-color="#A03FED"/>
<stop offset="1" stop-color="#30007E"/>
</linearGradient>
<linearGradient id="paint1_linear_918_27043" x1="372.95" y1="61.746" x2="-9.03406" y2="476.727" gradientUnits="userSpaceOnUse">
<stop stop-color="#FAF3FA"/>
<stop offset="0.395805" stop-color="#E1DFFF"/>
<stop offset="0.676836" stop-color="#5E6EEE" stop-opacity="0.968669"/>
<stop offset="0.993208" stop-color="#565CEA" stop-opacity="0.31"/>
</linearGradient>
<linearGradient id="paint2_linear_918_27043" x1="410.434" y1="132.749" x2="-133.376" y2="-16.8898" gradientUnits="userSpaceOnUse">
<stop stop-color="#FAF3FA"/>
<stop offset="0.395805" stop-color="#E1DFFF"/>
<stop offset="0.676836" stop-color="#5E6EEE" stop-opacity="0.968669"/>
<stop offset="0.993208" stop-color="#565CEA" stop-opacity="0.31"/>
</linearGradient>
<linearGradient id="paint3_linear_918_27043" x1="-15.4487" y1="198.365" x2="120.606" y2="178.686" gradientUnits="userSpaceOnUse">
<stop stop-color="#FFFCF2" stop-opacity="0.57"/>
<stop offset="1" stop-color="#89DCFF"/>
</linearGradient>
<linearGradient id="paint4_linear_918_27043" x1="218.319" y1="170.486" x2="396.597" y2="202.949" gradientUnits="userSpaceOnUse">
<stop stop-color="#FFFCF2" stop-opacity="0.57"/>
<stop offset="1" stop-color="#D989FF"/>
</linearGradient>
</defs>
</svg>
