<svg width="41" height="41" viewBox="0 0 41 41" fill="none" xmlns="http://www.w3.org/2000/svg">
<path d="M36.6336 6.8667H20.8002C20.7108 6.8667 20.6219 6.88076 20.5369 6.90834L20.3369 6.97498C19.9001 7.12029 19.6639 7.59209 19.8092 8.02873C19.8101 8.03139 19.811 8.03396 19.8119 8.03662L28.1885 32.515L22.6719 38.8183C22.3691 39.1649 22.4044 39.6914 22.751 39.9942C22.903 40.1271 23.0982 40.2002 23.3001 40.2H36.6335C38.9348 40.2001 40.8002 38.3346 40.8002 36.0334V11.0334C40.8002 8.73217 38.9348 6.8667 36.6336 6.8667Z" fill="#5AD3C0"/>
<path d="M29.8913 32.3551C29.7561 32.0577 29.4596 31.8668 29.1329 31.8667H20.7997C20.3394 31.8667 19.9663 32.2398 19.9663 32.7001C19.9663 32.8002 19.9844 32.8996 20.0197 32.9934L22.5197 39.6601C22.6229 39.9345 22.8628 40.1345 23.1513 40.1867C23.2003 40.1951 23.2499 40.1996 23.2997 40.2001C23.5399 40.1998 23.7683 40.0959 23.9263 39.9151L29.7597 33.2484C29.9751 33.0022 30.0265 32.6529 29.8913 32.3551Z" fill="#272C52"/>
<path d="M29.9214 32.43L19.0882 0.763311C18.9728 0.426357 18.656 0.199951 18.2998 0.199951H4.96644C2.66527 0.199951 0.799805 2.06542 0.799805 4.36659V29.3666C0.799805 31.6678 2.66527 33.5332 4.96644 33.5332H29.1331C29.5933 33.5332 29.9664 33.1601 29.9664 32.6999C29.9664 32.6081 29.9512 32.5168 29.9214 32.43Z" fill="#2320D4"/>
<path d="M16.6337 23.5332C16.2814 23.5333 15.9671 23.3117 15.8487 22.9798L12.4671 13.5098L9.08542 22.9798C8.91331 23.4067 8.42776 23.6132 8.00089 23.4411C7.59815 23.2787 7.38761 22.8343 7.51706 22.4198L11.6837 10.7532C11.8875 10.3201 12.4039 10.1343 12.8369 10.338C13.0193 10.4239 13.1661 10.5707 13.2521 10.7532L17.4187 22.4198C17.5739 22.8519 17.3503 23.3282 16.9187 23.4848C16.8271 23.5173 16.7307 23.5336 16.6337 23.5332Z" fill="#FAFAFA"/>
<path d="M14.135 18.5334H10.8016C10.3414 18.5334 9.96826 18.1603 9.96826 17.7001C9.96826 17.2398 10.3414 16.8667 10.8016 16.8667H14.135C14.5952 16.8667 14.9683 17.2398 14.9683 17.7001C14.9683 18.1603 14.5952 18.5334 14.135 18.5334Z" fill="#FAFAFA"/>
<path d="M16.6337 23.5332C16.2814 23.5333 15.9671 23.3117 15.8487 22.9798L12.4671 13.5098L9.08542 22.9798C8.91331 23.4067 8.42776 23.6132 8.00089 23.4411C7.59815 23.2787 7.38761 22.8343 7.51706 22.4198L11.6837 10.7532C11.8875 10.3201 12.4039 10.1343 12.8369 10.338C13.0193 10.4239 13.1661 10.5707 13.2521 10.7532L17.4187 22.4198C17.5739 22.8519 17.3503 23.3282 16.9187 23.4848C16.8271 23.5173 16.7307 23.5336 16.6337 23.5332Z" fill="white"/>
<path d="M14.133 18.5334H10.7997C10.3394 18.5334 9.96631 18.1603 9.96631 17.7001C9.96631 17.2398 10.3394 16.8667 10.7997 16.8667H14.133C14.5933 16.8667 14.9664 17.2398 14.9664 17.7001C14.9663 18.1603 14.5933 18.5334 14.133 18.5334Z" fill="white"/>
<path d="M39.0347 18.5334H27.368C26.9078 18.5334 26.5347 18.1603 26.5347 17.7001C26.5347 17.2398 26.9078 16.8667 27.368 16.8667H39.0347C39.4949 16.8667 39.868 17.2398 39.868 17.7001C39.868 18.1603 39.495 18.5334 39.0347 18.5334Z" fill="white"/>
<path d="M32.368 18.5333C31.9078 18.5333 31.5347 18.1602 31.5347 17.7V16.0333C31.5347 15.5731 31.9078 15.2 32.368 15.2C32.8283 15.2 33.2014 15.5731 33.2014 16.0333V17.7C33.2014 18.1602 32.8283 18.5333 32.368 18.5333Z" fill="white"/>
<path d="M29.8672 28.5334C29.407 28.533 29.0342 28.1596 29.0347 27.6994C29.0349 27.4304 29.165 27.178 29.384 27.0218C33.034 24.4284 35.7006 19.1417 35.7006 17.7001C35.7006 17.2398 36.0737 16.8667 36.534 16.8667C36.9942 16.8667 37.3673 17.2398 37.3673 17.7001C37.3673 19.8967 34.1557 25.6767 30.3507 28.3784C30.2095 28.479 30.0406 28.5333 29.8672 28.5334Z" fill="white"/>
<path d="M36.5347 30.1998C36.3262 30.2 36.1252 30.1221 35.9713 29.9814C35.368 29.4281 30.0413 24.5081 29.0963 22.1798C28.9228 21.7532 29.128 21.2667 29.5547 21.0932C29.9813 20.9196 30.4678 21.1249 30.6413 21.5515C31.323 23.2315 35.5347 27.3182 37.0997 28.7499C37.4402 29.0594 37.4654 29.5864 37.1559 29.9271C36.9969 30.1019 36.771 30.201 36.5347 30.1998Z" fill="white"/>
</svg>
