<svg width="40" height="37" viewBox="0 0 40 37" fill="none" xmlns="http://www.w3.org/2000/svg">
<path d="M37.2503 29.8948C37.2666 29.8241 37.2954 29.765 37.2954 29.6905V24.7689C37.2954 20.8007 33.9597 17.5733 29.8565 17.5733C25.7534 17.5733 22.418 20.8007 22.418 24.7689L22.4222 29.0773C22.4222 31.9942 20.0253 34.3685 17.0821 34.3685C14.1393 34.3685 11.7445 31.9942 11.7445 29.0773V19.0766C16.9662 18.7039 21.1051 14.7793 21.1051 9.95451V1.55122C21.1051 1.02663 20.6341 0.600098 20.0548 0.600098H16.7291C16.1499 0.600098 15.6789 1.02663 15.6789 1.55122C15.6789 2.07613 16.1499 2.50235 16.7291 2.50235H19.0042V9.95419C19.0042 13.9737 15.3926 17.2464 10.9521 17.2464C6.51057 17.2464 2.89995 13.9737 2.89995 9.95419V2.50266H5.35134C5.93061 2.50266 6.40159 2.07645 6.40159 1.55154C6.40194 1.02663 5.9313 0.600098 5.35169 0.600098H1.85005C1.27044 0.600098 0.799805 1.02663 0.799805 1.55122V9.95419C0.799805 14.6174 4.66691 18.4392 9.64361 19.0289V29.0773C9.64361 33.0459 12.9794 36.2711 17.0821 36.2711C21.1849 36.2711 24.5227 33.0459 24.5227 29.0773L24.5189 24.7689C24.5189 21.8502 26.9151 19.4758 29.8569 19.4758C32.7987 19.4758 35.1949 21.8502 35.1949 24.7689V29.6902C35.1949 29.7204 35.2071 29.7352 35.2112 29.7609C33.4102 30.0881 32.048 31.5337 32.048 33.2577C32.048 35.225 33.8122 36.8249 35.9869 36.8249C38.1575 36.8249 39.9259 35.225 39.9259 33.2577C39.9252 31.693 38.801 30.3742 37.2503 29.8948ZM35.9883 34.9223C34.9769 34.9223 34.1502 34.1717 34.1502 33.2577C34.1502 32.3437 34.9769 31.5928 35.9883 31.5928C36.9997 31.5928 37.8264 32.3437 37.8264 33.2577C37.8264 34.1717 37 34.9223 35.9883 34.9223Z" fill="#2320D4"/>
</svg>
